# xmcd
#
# Track frame offsets: 
#        150
#        3356
#        16253
#        29667
#        47602
#        49667
#        69043
#        86461
#        97535
#        114490
#        129002
#        144658
#        161106
#        177121
#        180234
#        202247
#
# Disc length: 2742 seconds
#
# Revision: 0
# Processed by: cddbd v1.5.2PL0 Copyright (c) Steve Scherf et al.
# Submitted via: ExactAudioCopy v0.99pb4
#
DISCID=be0ab410
DTITLE=The 49ers - Equilibrium
DYEAR=2007
DGENRE=Rap
TTITLE0=Intro
TTITLE1=Earth's Rotation
TTITLE2=Too Sophisticated
TTITLE3=Nausea
TTITLE4=Orlando
TTITLE5=Mesmerized
TTITLE6=Breath of Fresh Air
TTITLE7=Boom Bap
TTITLE8=I Don't Want No
TTITLE9=The Belts
TTITLE10=Put Em Up II
TTITLE11=Higher
TTITLE12=Puppets
TTITLE13=Save the Children
TTITLE14=Window Down
TTITLE15=Outro
EXTD=
EXTT0=
EXTT1=
EXTT2=
EXTT3=
EXTT4=
EXTT5=
EXTT6=
EXTT7=
EXTT8=
EXTT9=
EXTT10=
EXTT11=
EXTT12=
EXTT13=
EXTT14=
EXTT15=
PLAYORDER=
